<?xml version="1.0" encoding="UTF-8" standalone="no"?>
<!-- Created with Inkscape (http://www.inkscape.org/) -->

<svg
   width="71.997551mm"
   height="10.559999mm"
   viewBox="0 0 71.997552 10.56"
   version="1.1"
   id="svg1"
   xml:space="preserve"
   sodipodi:docname="ensoniq.svg"
   inkscape:version="1.4.2 (ebf0e940d0, 2025-05-08)"
   xmlns:inkscape="http://www.inkscape.org/namespaces/inkscape"
   xmlns:sodipodi="http://sodipodi.sourceforge.net/DTD/sodipodi-0.dtd"
   xmlns="http://www.w3.org/2000/svg"
   xmlns:svg="http://www.w3.org/2000/svg"><sodipodi:namedview
     id="namedview1"
     pagecolor="#eaeaea"
     bordercolor="#000000"
     borderopacity="0.25"
     inkscape:showpageshadow="2"
     inkscape:pageopacity="0.0"
     inkscape:pagecheckerboard="true"
     inkscape:deskcolor="#d1d1d1"
     inkscape:document-units="mm"
     inkscape:zoom="2.5417258"
     inkscape:cx="129.43961"
     inkscape:cy="13.966888"
     inkscape:window-width="1704"
     inkscape:window-height="996"
     inkscape:window-x="0"
     inkscape:window-y="0"
     inkscape:window-maximized="1"
     inkscape:current-layer="svg1" /><defs
     id="defs1"><style
       id="style1">
      .cls-1 {
        fill: none;
      }

      .cls-2 {
        fill: #231f20;
      }
    </style><clipPath
       id="clippath"><rect
         class="cls-1"
         x="-318.70001"
         y="-1995.1"
         width="1671.8"
         height="2163.6001"
         id="rect1" /></clipPath></defs><path
     id="path1"
     class="cls-2"
     d="M 1.7436129,0 C 0.78686512,0 0,0.78686172 0,1.7436129 V 8.8163871 C 0,9.7731246 0.78686512,10.56 1.7436129,10.56 H 70.254115 c 0.956738,0 1.743439,-0.7868754 1.743439,-1.7436129 V 1.7436129 C 71.997554,0.78686172 71.210853,0 70.254115,0 H 59.202151 V 0.90306708 H 70.55799 c 0.268333,0 0.491961,0.22354352 0.491961,0.49178832 v 7.8059157 c 0,0.2682313 -0.223628,0.4917882 -0.491961,0.4917882 H 1.3948553 c -0.2682481,0 -0.4917882,-0.2235569 -0.4917882,-0.4917882 V 1.403762 c 0,-0.2682481 0.2235401,-0.49178824 0.4917882,-0.49178824 H 55.866864 V 0 Z M 56.573461,0.01781334 c -0.07926,0 -0.143031,0.06377247 -0.143031,0.14303075 V 1.3948554 c 0,0.079258 0.06377,0.1430308 0.143031,0.1430308 h 1.913536 c 0.07926,0 0.14303,-0.063773 0.14303,-0.1430308 V 0.16084409 c 0,-0.07925828 -0.06377,-0.14303075 -0.14303,-0.14303075 z M 33.826158,1.6989049 25.44777,1.7256249 c -0.876271,0 -1.591674,0.7153649 -1.591674,1.600582 v 1.3859486 c 0,0.8852273 0.715354,1.6005821 1.600581,1.6005821 h 6.178614 c 0.116221,0 0.214634,0.098238 0.214634,0.2144589 v 0.2862362 c 0,0.116255 -0.09842,0.2146333 -0.214634,0.2146333 h -7.653979 v 1.8330289 h 8.423096 c 0.885194,0 1.600584,-0.7153548 1.600584,-1.6005822 V 5.9550736 c 0,-0.8852273 -0.71539,-1.6005821 -1.600584,-1.6005821 h -6.151893 c -0.125211,0 -0.232447,-0.098348 -0.232447,-0.2324466 V 3.8537967 c 0,-0.1251769 0.09832,-0.232447 0.232447,-0.232447 h 7.564562 V 1.7167182 Z m 9.49574,0.00891 -7.260512,0.053615 c -0.795535,0 -1.439388,0.6528069 -1.439388,1.4575512 v 4.2025541 c 0,0.8047274 0.652542,1.4573765 1.457201,1.4573765 h 7.260513 c 0.804997,0 1.457725,-0.6526491 1.457725,-1.4573765 V 3.1651917 c 0,-0.8047444 -0.661797,-1.4573767 -1.466458,-1.4573767 z m 17.722362,0.00891 c -1.010472,0 -1.824121,0.7242716 -1.824121,1.6094887 v 4.0237221 c 0,0.8494721 0.777969,1.5289791 1.734707,1.5289791 h 6.96537 c 0.205812,0 0.393357,-0.035783 0.572471,-0.089416 l 1.090634,0.7689429 c 0.07165,0.053666 0.08081,0.035869 0.152111,-0.02672 l 0.751304,-0.8316389 c 0.08922,-0.098344 0.107131,-0.098333 0,-0.1788322 l -0.0093,0.00891 -0.929615,-0.6973403 c 0.08043,-0.1788434 0.05344,-0.2325309 0.05344,-0.4381737 V 3.1384682 c 0,-0.7868601 -0.724396,-1.42175 -1.609488,-1.42175 z m -45.342837,0.00891 c -0.358455,0 -0.545769,0.3583657 -0.554311,0.3910205 V 1.7345316 h -2.163973 v 7.1176566 h 2.190693 V 3.7554737 c 0,-0.071545 0.05371,-0.1252173 0.125218,-0.1252173 h 5.329161 c 0.1073,0 0.187739,0.080439 0.187739,0.1877388 l 0.0358,5.0698196 2.235401,-0.017813 c 0,0 -0.02672,-5.320267 -0.02672,-5.7673347 0,-0.447078 -0.178806,-1.377042 -1.439564,-1.377042 z m 32.609959,0 c -0.358059,0 -0.545615,0.3578541 -0.55431,0.3910205 V 1.7345316 h -2.163795 v 7.1532832 h 2.199597 V 3.7554737 c 0,-0.071545 0.0534,-0.1252173 0.125042,-0.1252173 h 5.329163 c 0.107468,0 0.187914,0.080439 0.187914,0.1877388 l 0.0358,5.0698196 h 2.226495 c 0,0 -0.02707,-5.3380802 -0.02707,-5.7851479 0,-0.447078 -0.178834,-1.377042 -1.439388,-1.377042 z m -44.7258337,0.00891 c -0.8584007,0 -1.555874,0.6974834 -1.555874,1.555874 v 4.0148153 c 0,0.8583939 0.6974733,1.555874 1.555874,1.555874 H 12.196383 V 7.0547861 H 4.4529888 v -0.017813 c -0.080466,0 -0.1432054,-0.062531 -0.1432054,-0.1430307 V 6.4915699 c 0,-0.080466 0.06274,-0.1430308 0.1432054,-0.1430308 H 12.169489 V 3.2904056 c 0,-0.8583906 -0.697481,-1.555874 -1.555875,-1.555874 z M 56.430254,1.9133636 v 3.4605056 3.5139456 h 2.199773 V 1.9133636 Z M 37.465147,3.5497471 h 4.479884 c 0.437984,0 0.795836,0.3577188 0.795836,0.7958377 v 1.9135384 c 0,0.4381527 -0.357808,0.7956629 -0.804917,0.7956629 l -4.479536,-0.035627 c -0.438322,0 -0.787106,-0.3577188 -0.787106,-0.7958377 V 4.3455848 c 0,-0.4381189 0.357855,-0.7958377 0.795839,-0.7958377 z m 24.750429,0.080509 h 4.676706 c 0.267995,0 0.48253,0.1876604 0.48253,0.4290922 L 67.3928,6.2769365 66.606045,5.6868254 c -0.01791,0.017878 -1.01941,0.9925445 -1.046446,1.0193778 l 0.465067,0.3396762 h -3.871611 l -0.0091,-0.00891 c -0.250422,0 -0.447081,-0.178867 -0.447081,-0.3934654 V 4.06843 c 0.01791,-0.2414318 0.241563,-0.4381736 0.518682,-0.4381736 z m -57.7625872,0.00891 h 5.4005893 c 0.0805,0 0.1432052,0.062531 0.1432052,0.1430307 v 0.4292639 c 0,0.080499 -0.062706,0.1430308 -0.1432052,0.1430308 H 4.4529888 c -0.080466,0 -0.1432054,-0.062531 -0.1432054,-0.1430308 V 3.7821938 c 0,-0.0805 0.06274,-0.1430307 0.1432054,-0.1430307 z"
     style="stroke-width:0.337951" /></svg>
