<?xml version="1.0" encoding="UTF-8" standalone="no"?>
<!-- Created with Inkscape (http://www.inkscape.org/) -->

<svg
   width="67.000099mm"
   height="28.247702mm"
   viewBox="0 0 67.000099 28.247702"
   version="1.1"
   id="svg1"
   inkscape:version="1.4.2 (ebf0e940d0, 2025-05-08)"
   sodipodi:docname="sd1.svg"
   xmlns:inkscape="http://www.inkscape.org/namespaces/inkscape"
   xmlns:sodipodi="http://sodipodi.sourceforge.net/DTD/sodipodi-0.dtd"
   xmlns="http://www.w3.org/2000/svg"
   xmlns:svg="http://www.w3.org/2000/svg">
  <sodipodi:namedview
     id="namedview1"
     pagecolor="#676767"
     bordercolor="#000000"
     borderopacity="0.25"
     inkscape:showpageshadow="2"
     inkscape:pageopacity="0.0"
     inkscape:pagecheckerboard="true"
     inkscape:deskcolor="#d1d1d1"
     inkscape:document-units="mm"
     inkscape:zoom="2.2052934"
     inkscape:cx="130.36814"
     inkscape:cy="131.27505"
     inkscape:window-width="1704"
     inkscape:window-height="996"
     inkscape:window-x="0"
     inkscape:window-y="0"
     inkscape:window-maximized="1"
     inkscape:current-layer="layer1" />
  <defs
     id="defs1" />
  <g
     inkscape:label="Layer 1"
     inkscape:groupmode="layer"
     id="layer1">
    <path
       id="text1"
       style="-inkscape-font-specification:&quot;Helvetica-Light, Normal&quot;;fill:#ffffff;fill-opacity:1;font-family:Helvetica-Light;font-size:36.8482px;stroke-width:2.17606;text-align:center;text-anchor:middle"
       d="M 9.5094971 0 C 6.7161371 -1.42109e-14 4.530091 0.70830413 2.951241 2.1244181 C 1.396681 3.5156781 0.61960042 5.2047958 0.61960042 7.1923258 C 0.61960042 8.5090558 0.86243912 9.6268963 1.3482381 10.546126 C 1.8340381 11.440526 2.4778164 12.148744 3.2793864 12.670544 C 4.0809564 13.192244 4.9308883 13.602244 5.8296183 13.900444 C 6.7283483 14.198544 7.894486 14.521577 9.327596 14.869377 C 10.542136 15.167477 11.537811 15.440565 12.315011 15.688965 C 13.092311 15.912565 13.80895 16.223191 14.46475 16.620691 C 15.12055 17.018191 15.64298 17.53997 16.03158 18.18597 C 16.42018 18.83187 16.61449 19.61443 16.61449 20.53363 C 16.61449 22.12363 16.055923 23.452684 14.938623 24.520984 C 13.821223 25.564384 12.15712 26.086263 9.9466797 26.086263 C 7.7848697 26.086263 6.0359215 25.564384 4.6999715 24.520984 C 3.3640215 23.477484 2.5988244 21.81319 2.4045044 19.52749 L 0 19.52749 C 0 22.33489 0.8742107 24.496449 2.6230957 26.011849 C 4.3719657 27.502549 6.6675671 28.247888 9.5094971 28.247888 C 12.521457 28.247888 14.865626 27.564284 16.541626 26.197884 C 18.241926 24.806584 19.091858 22.881609 19.091858 20.422009 C 19.091858 19.055609 18.84902 17.912578 18.36322 16.993278 C 17.87742 16.074078 17.221698 15.353353 16.395898 14.831653 C 15.569998 14.285053 14.707676 13.875571 13.808976 13.602271 C 12.910176 13.304171 11.719835 12.993444 10.238135 12.670544 C 9.1208348 12.422044 8.209895 12.198484 7.505485 11.999784 C 6.801075 11.800984 6.133013 11.539886 5.501473 11.216886 C 4.869933 10.869086 4.3356901 10.447147 3.8984701 9.950297 C 3.4855401 9.453417 3.2184186 8.8321749 3.0969686 8.0868449 C 3.0483886 7.8135649 3.0241048 7.5523769 3.0241048 7.3039469 C 3.0241048 5.8878269 3.570748 4.6829405 4.663798 3.6891805 C 5.756838 2.6705805 7.3719671 2.1616252 9.5094971 2.1616252 C 11.331247 2.1616252 12.861631 2.6582135 14.100431 3.6519735 C 15.339131 4.6208935 15.958716 6.0746008 15.958716 8.0124308 L 18.327047 8.0124308 C 18.327047 5.7019308 17.56188 3.7887363 16.03158 2.2732463 C 14.50128 0.75775926 12.327147 -1.3159844e-14 9.5094971 0 z M 23.646102 0.70796712 L 23.646102 27.539404 L 32.609379 27.539404 C 34.625479 27.539404 36.398751 27.315744 37.928951 26.868644 C 39.483551 26.396544 40.807285 25.527118 41.900285 24.260018 C 43.017685 23.017818 43.818989 21.502742 44.304789 19.714042 C 44.814789 17.925242 45.070117 16.049179 45.070117 14.086479 C 45.070117 13.117579 44.997226 12.111558 44.851526 11.068058 C 44.705726 10.024658 44.462888 8.98095 44.122888 7.9375 C 43.807088 6.89405 43.35755 5.9127237 42.77465 4.9934937 C 42.21595 4.0742637 41.523674 3.3165074 40.697774 2.7202474 C 39.580474 1.9003974 38.39045 1.3662012 37.12745 1.1177612 C 35.88865 0.84447923 34.382579 0.70796712 32.609379 0.70796712 L 23.646102 0.70796712 z M 63.964054 0.87074788 L 60.631958 4.2023275 L 63.964054 4.2023275 L 63.964054 27.608651 L 67.000045 27.608651 L 67.000045 0.87074788 L 63.964054 0.87074788 z M 26.123987 2.8695923 L 32.062642 2.8695923 C 33.350042 2.8695923 34.491856 2.9437745 35.487756 3.0928345 C 36.507956 3.2170545 37.370279 3.4782224 38.074679 3.8757324 C 38.949079 4.3477624 39.677592 4.9561408 40.260592 5.7014608 C 40.867792 6.4467808 41.341694 7.279236 41.681694 8.198466 C 42.021794 9.092856 42.252758 10.037051 42.374158 11.030851 C 42.519858 12.024551 42.592749 13.042979 42.592749 14.086479 C 42.592749 15.105079 42.519858 16.098792 42.374158 17.067692 C 42.252758 18.036592 42.021794 18.980877 41.681694 19.900077 C 41.365994 20.819277 40.916455 21.651783 40.333455 22.397083 C 39.750555 23.117583 39.046306 23.701197 38.220406 24.148397 C 37.297406 24.645297 36.362193 24.980637 35.414893 25.154537 C 34.467593 25.303637 33.350042 25.378296 32.062642 25.378296 L 26.123987 25.378296 L 26.123987 2.8695923 z " />
    <path
       style="fill:#db5f6a;fill-opacity:1;stroke-width:2.65838"
       d="M 42.5394 0.87059 L 51.0163 9.93793 L 59.4932 0.87059 Z"
       id="path6" />
  </g>
</svg>
