<?xml version="1.0" encoding="UTF-8" standalone="no"?>
<!-- Created with Inkscape (http://www.inkscape.org/) -->

<svg
   width="67.000557mm"
   height="37.14674mm"
   viewBox="0 0 67.000557 37.14674"
   version="1.1"
   id="svg1"
   inkscape:version="1.4.2 (ebf0e940d0, 2025-05-08)"
   sodipodi:docname="sd132.svg"
   xmlns:inkscape="http://www.inkscape.org/namespaces/inkscape"
   xmlns:sodipodi="http://sodipodi.sourceforge.net/DTD/sodipodi-0.dtd"
   xmlns="http://www.w3.org/2000/svg"
   xmlns:svg="http://www.w3.org/2000/svg">
  <sodipodi:namedview
     id="namedview1"
     pagecolor="#676767"
     bordercolor="#000000"
     borderopacity="0.25"
     inkscape:showpageshadow="2"
     inkscape:pageopacity="0.0"
     inkscape:pagecheckerboard="true"
     inkscape:deskcolor="#d1d1d1"
     inkscape:document-units="mm"
     inkscape:zoom="2.2397511"
     inkscape:cx="162.7413"
     inkscape:cy="154.70469"
     inkscape:window-width="1704"
     inkscape:window-height="996"
     inkscape:window-x="0"
     inkscape:window-y="0"
     inkscape:window-maximized="1"
     inkscape:current-layer="layer1"
     showgrid="false" />
  <defs
     id="defs1" />
  <g
     inkscape:label="Layer 1"
     inkscape:groupmode="layer"
     id="layer1">
    <path
       id="rect4"
       style="fill:#db5f6a;fill-opacity:1;stroke-width:2.76305"
       d="M 42.539522 0.87074788 L 51.016524 9.9378947 L 59.493009 0.87074788 L 42.539522 0.87074788 z M -0.00051676432 30.14648 L -0.00051676432 37.14657 L 16.759184 37.14657 L 19.49235 34.223751 L 22.224483 37.14657 L 67.000045 37.14657 L 67.000045 30.14648 L -0.00051676432 30.14648 z M 37.541895 30.971753 C 37.721395 30.971753 37.879284 31.011959 38.016284 31.092159 C 38.156584 31.172359 38.278787 31.283455 38.383187 31.424955 C 38.487587 31.561755 38.57597 31.719628 38.64777 31.898828 C 38.71957 32.078128 38.776936 32.266485 38.819336 32.464685 C 38.865036 32.662785 38.897404 32.863299 38.917004 33.066199 C 38.936604 33.268999 38.945943 33.462525 38.945943 33.646525 C 38.945943 33.830525 38.936404 34.024051 38.917004 34.226851 C 38.897404 34.429751 38.865036 34.630265 38.819336 34.828365 C 38.776936 35.026565 38.71957 35.214922 38.64777 35.394222 C 38.57597 35.573422 38.487587 35.73383 38.383187 35.87533 C 38.278787 36.01213 38.156584 36.120691 38.016284 36.200891 C 37.879284 36.281091 37.721395 36.321297 37.541895 36.321297 C 37.362495 36.321297 37.203154 36.281091 37.062854 36.200891 C 36.925854 36.120691 36.804485 36.01213 36.700085 35.87533 C 36.595685 35.73383 36.508236 35.573422 36.436536 35.394222 C 36.364736 35.214922 36.305502 35.026565 36.259802 34.828365 C 36.217402 34.630265 36.186385 34.429751 36.166785 34.226851 C 36.147185 34.024051 36.137846 33.830525 36.137846 33.646525 C 36.137846 33.462525 36.147385 33.268999 36.166785 33.066199 C 36.186385 32.863299 36.217402 32.662785 36.259802 32.464685 C 36.305502 32.266485 36.364736 32.078128 36.436536 31.898828 C 36.508336 31.719628 36.595685 31.561755 36.700085 31.424955 C 36.804485 31.283455 36.925854 31.172359 37.062854 31.092159 C 37.203154 31.011959 37.362495 30.971753 37.541895 30.971753 z M 55.128935 30.971753 C 55.314835 30.971753 55.477594 31.019046 55.617794 31.113346 C 55.758094 31.207646 55.877078 31.332817 55.974878 31.488517 C 56.072778 31.639417 56.149855 31.816434 56.205355 32.019234 C 56.260855 32.217334 56.296542 32.422401 56.312842 32.634701 L 55.936637 32.634701 C 55.907237 32.413001 55.861178 32.233549 55.799178 32.096749 C 55.737178 31.955249 55.667155 31.847204 55.588855 31.771704 C 55.513855 31.696304 55.435744 31.646576 55.354244 31.622876 C 55.272644 31.594576 55.197435 31.580501 55.128935 31.580501 C 54.998435 31.580501 54.876132 31.622625 54.762032 31.707625 C 54.647832 31.792525 54.546275 31.920231 54.458175 32.090031 C 54.373375 32.255131 54.30667 32.46475 54.25767 32.71945 C 54.20867 32.96945 54.18429 33.262016 54.18429 33.596916 C 54.18429 33.894116 54.200265 34.172607 54.232865 34.432007 C 54.265465 34.691507 54.320029 34.915617 54.395129 35.104317 C 54.470129 35.292917 54.567952 35.441268 54.688652 35.549768 C 54.809352 35.658268 54.959353 35.712549 55.138753 35.712549 C 55.200753 35.712549 55.272644 35.695939 55.354244 35.662939 C 55.439044 35.625139 55.519857 35.556884 55.598157 35.457784 C 55.676457 35.358684 55.748447 35.219438 55.813647 35.040238 C 55.882147 34.856238 55.932459 34.616035 55.965059 34.318835 L 56.342814 34.318835 C 56.316714 34.639535 56.270655 34.910522 56.205355 35.132222 C 56.143355 35.353922 56.071464 35.540461 55.989864 35.691361 C 55.908364 35.837561 55.821748 35.95311 55.730448 36.03811 C 55.639048 36.12301 55.551282 36.186813 55.466382 36.229313 C 55.381582 36.271813 55.304922 36.297428 55.236422 36.306828 C 55.167922 36.315828 55.115742 36.321297 55.079842 36.321297 C 54.916742 36.321297 54.756368 36.271569 54.599768 36.172469 C 54.443168 36.073369 54.30499 35.917514 54.18429 35.705314 C 54.06359 35.488314 53.965251 35.21034 53.890251 34.87074 C 53.818451 34.52644 53.782764 34.108603 53.782764 33.618103 C 53.782764 33.226503 53.813781 32.870751 53.875781 32.549951 C 53.937781 32.224451 54.025648 31.94596 54.139848 31.71486 C 54.254048 31.47906 54.394711 31.29759 54.561011 31.17019 C 54.727411 31.03819 54.916835 30.971753 55.128935 30.971753 z M 26.688293 31.106628 L 27.123926 31.106628 L 27.950749 35.436597 L 28.767753 31.106628 L 29.208553 31.106628 L 28.156938 36.186938 L 27.740942 36.186938 L 26.688293 31.106628 z M 46.159456 31.106628 L 46.550647 31.106628 L 46.550647 36.186938 L 46.159456 36.186938 L 46.159456 31.106628 z M 63.544958 31.106628 L 65.639404 31.106628 L 65.639404 31.71486 L 63.932015 31.71486 L 63.932015 33.271354 L 65.51228 33.271354 L 65.51228 33.880103 L 63.932015 33.880103 L 63.932015 35.57819 L 65.66886 35.57819 L 65.66886 36.186938 L 63.544958 36.186938 L 63.544958 31.106628 z M 2.3094198 31.212048 L 2.3094198 31.212565 C 2.4464298 31.212565 2.5686724 31.245784 2.6763224 31.311784 C 2.7839824 31.377884 2.8751675 31.469836 2.9502075 31.587736 C 3.0252375 31.700936 3.0826333 31.837647 3.1217733 31.998047 C 3.1609133 32.158447 3.1801676 32.332829 3.1801676 32.521529 C 3.1801676 32.681929 3.1689112 32.821175 3.1460612 32.939075 C 3.1232212 33.057075 3.0940913 33.158549 3.0582113 33.243449 C 3.0223413 33.323649 2.982809 33.38947 2.940389 33.44137 C 2.897979 33.49327 2.8575726 33.528823 2.8184326 33.547823 L 2.8184326 33.561776 C 2.9554426 33.641976 3.0677997 33.771599 3.1558797 33.950899 C 3.2439697 34.130099 3.2881714 34.387528 3.2881714 34.722428 C 3.2881714 34.925328 3.2684003 35.123307 3.2292603 35.316707 C 3.1933903 35.510107 3.1346036 35.682055 3.0530436 35.832955 C 2.9714836 35.979255 2.8657236 36.097338 2.7352336 36.186938 C 2.6080036 36.276538 2.4542165 36.321297 2.2747965 36.321297 C 2.1704065 36.321297 2.0745221 36.300235 1.9864421 36.257735 C 1.8983621 36.220035 1.8198243 36.168189 1.7513143 36.102189 C 1.6730243 36.031389 1.6076606 35.94389 1.5554606 35.84019 C 1.5065106 35.73169 1.4660942 35.616041 1.4335042 35.493441 C 1.4008542 35.366041 1.3764237 35.231865 1.3601237 35.090365 C 1.3470937 34.948865 1.3372081 34.807184 1.3306681 34.665584 L 1.6929199 34.665584 C 1.6962199 34.783584 1.7042278 34.906121 1.7172078 35.033521 C 1.7335078 35.160821 1.7612469 35.279004 1.8004069 35.387504 C 1.8428169 35.496004 1.9029744 35.585422 1.9812744 35.656222 C 2.0595644 35.727022 2.1658512 35.762158 2.2996012 35.762158 C 2.4790312 35.762158 2.6257044 35.675175 2.7398844 35.500675 C 2.8540544 35.321475 2.9109334 35.087743 2.9109334 34.799943 C 2.9109334 34.592443 2.8884005 34.427483 2.8427205 34.304883 C 2.7970405 34.182183 2.7396548 34.090231 2.6711548 34.028931 C 2.6059148 33.967631 2.5344808 33.929859 2.4561808 33.915759 C 2.3811508 33.896959 2.3124986 33.887337 2.2505086 33.887337 C 2.2243986 33.887337 2.1985372 33.889572 2.1724772 33.894572 L 2.093929 33.894572 L 2.093929 33.35662 C 2.123309 33.36162 2.152439 33.363338 2.181779 33.363338 L 2.2747965 33.363338 C 2.3433165 33.363338 2.4105679 33.351281 2.4758179 33.327681 C 2.5410679 33.299381 2.5979369 33.254723 2.6468669 33.193323 C 2.6990369 33.127223 2.73995 33.042258 2.76934 32.938558 C 2.80194 32.834758 2.8179159 32.705134 2.8179159 32.549434 C 2.8179159 32.474034 2.8099179 32.391604 2.7936279 32.301904 C 2.7805979 32.212304 2.7547365 32.129774 2.7155965 32.054374 C 2.6764565 31.974174 2.6223693 31.907837 2.5538493 31.855937 C 2.4853393 31.799337 2.3988236 31.771187 2.2944336 31.771187 C 2.1672036 31.771187 2.0680306 31.811393 1.9962606 31.891593 C 1.9277506 31.967093 1.8736633 32.061064 1.8345133 32.174264 C 1.7986433 32.287464 1.7742128 32.405647 1.7611328 32.528247 C 1.7513328 32.650847 1.7447258 32.754439 1.7414958 32.839339 L 1.398881 32.839339 C 1.398881 32.655339 1.4120451 32.469317 1.4381551 32.280717 C 1.4642651 32.087317 1.5098677 31.912835 1.5750977 31.757235 C 1.6436077 31.596835 1.7367104 31.466694 1.8541504 31.367594 C 1.9715904 31.263894 2.1234698 31.212048 2.3094198 31.212048 z M 11.274247 31.212565 C 11.394928 31.212575 11.508661 31.247612 11.616345 31.318502 C 11.723945 31.384602 11.817098 31.481523 11.895398 31.608923 C 11.976998 31.736323 12.040484 31.891662 12.086084 32.075562 C 12.131784 32.259562 12.154814 32.467163 12.154814 32.698263 C 12.154814 32.919963 12.135003 33.113489 12.095903 33.278589 C 12.056803 33.438889 12.003172 33.582687 11.934672 33.710087 C 11.866172 33.837387 11.786293 33.953036 11.694893 34.056836 C 11.603593 34.160636 11.505771 34.26211 11.401371 34.36121 L 11.107849 34.644397 C 11.009949 34.738697 10.93007 34.832767 10.86807 34.927067 C 10.80937 35.016667 10.76186 35.104167 10.72596 35.189067 C 10.69006 35.273967 10.664229 35.351944 10.647929 35.422644 C 10.631629 35.493444 10.62219 35.552277 10.61899 35.599377 L 12.15533 35.599377 L 12.15533 36.186938 L 10.227283 36.186938 C 10.237283 35.672738 10.300569 35.264624 10.417969 34.962724 C 10.538669 34.656124 10.695208 34.405782 10.887708 34.212382 L 11.259778 33.830493 C 11.334778 33.755093 11.40355 33.682185 11.46545 33.611385 C 11.53065 33.540585 11.586248 33.462608 11.631848 33.377808 C 11.677548 33.292908 11.713235 33.195886 11.739335 33.087386 C 11.765435 32.974186 11.778609 32.835457 11.778609 32.670357 C 11.778609 32.571257 11.768554 32.469683 11.749154 32.365983 C 11.729554 32.257483 11.697185 32.160462 11.651485 32.075562 C 11.609085 31.985962 11.551619 31.913053 11.479919 31.856453 C 11.408119 31.799853 11.321604 31.771704 11.220504 31.771704 C 11.086704 31.771704 10.982345 31.818998 10.907345 31.913298 C 10.832345 32.007598 10.776846 32.120812 10.740946 32.252812 C 10.705046 32.384912 10.682534 32.521623 10.672734 32.663123 C 10.662734 32.799923 10.656297 32.910502 10.653097 32.995402 L 10.296012 32.995402 C 10.296012 32.589702 10.331699 32.269087 10.403499 32.033187 C 10.478499 31.797287 10.566366 31.618352 10.667566 31.495752 C 10.771966 31.373052 10.879644 31.295174 10.990544 31.262174 C 11.101521 31.229181 11.196057 31.212572 11.274247 31.212565 z M 37.541895 31.580501 C 37.385295 31.580501 37.245148 31.632347 37.121248 31.736047 C 36.997248 31.839847 36.891438 31.983546 36.803438 32.167546 C 36.718638 32.351546 36.652768 32.571203 36.607068 32.825903 C 36.561368 33.075903 36.538855 33.349325 36.538855 33.646525 C 36.538855 33.943725 36.561368 34.219582 36.607068 34.474382 C 36.652768 34.724382 36.718638 34.941505 36.803438 35.125505 C 36.891538 35.309405 36.997248 35.453203 37.121248 35.557003 C 37.245148 35.660803 37.385295 35.712549 37.541895 35.712549 C 37.698495 35.712549 37.839057 35.660703 37.963057 35.557003 C 38.087057 35.453203 38.1909 35.309405 38.2757 35.125505 C 38.3638 34.941505 38.430604 34.724382 38.476204 34.474382 C 38.521904 34.219582 38.544934 33.943725 38.544934 33.646525 C 38.544934 33.349325 38.521904 33.075903 38.476204 32.825903 C 38.430504 32.571203 38.3638 32.351546 38.2757 32.167546 C 38.1909 31.983546 38.087057 31.839847 37.963057 31.736047 C 37.839057 31.632247 37.698495 31.580501 37.541895 31.580501 z " />
    <path
       id="text1"
       style="-inkscape-font-specification:&quot;Helvetica-Light, Normal&quot;;fill:#ffffff;fill-opacity:1;font-family:Helvetica-Light;font-size:36.8482px;stroke-width:2.17606;text-align:center;text-anchor:middle"
       d="M 9.5094971 0 C 6.7161371 -1.42109e-14 4.530091 0.70830413 2.951241 2.1244181 C 1.396681 3.5156781 0.61960042 5.2047958 0.61960042 7.1923258 C 0.61960042 8.5090558 0.86243912 9.6268963 1.3482381 10.546126 C 1.8340381 11.440526 2.4778164 12.148744 3.2793864 12.670544 C 4.0809564 13.192244 4.9308883 13.602244 5.8296183 13.900444 C 6.7283483 14.198544 7.894486 14.521577 9.327596 14.869377 C 10.542126 15.167477 11.537811 15.440565 12.315011 15.688965 C 13.092311 15.912565 13.80895 16.223191 14.46475 16.620691 C 15.12055 17.018191 15.64298 17.53997 16.03158 18.18597 C 16.42028 18.83187 16.61449 19.61443 16.61449 20.53363 C 16.61449 22.12363 16.055923 23.452684 14.938623 24.520984 C 13.821223 25.564384 12.15711 26.086263 9.9466797 26.086263 C 7.7848697 26.086263 6.0359215 25.564384 4.6999715 24.520984 C 3.3640215 23.477484 2.5988244 21.81319 2.4045044 19.52749 L 0 19.52749 C 0 22.33489 0.8742207 24.496449 2.6230957 26.011849 C 4.3719757 27.502549 6.6675671 28.247888 9.5094971 28.247888 C 12.521447 28.247888 14.865626 27.564284 16.541626 26.197884 C 18.241926 24.806584 19.091858 22.881609 19.091858 20.422009 C 19.091858 19.055609 18.84902 17.912578 18.36322 16.993278 C 17.87732 16.074078 17.221698 15.353353 16.395898 14.831653 C 15.569998 14.285053 14.707676 13.875571 13.808976 13.602271 C 12.910176 13.304171 11.719835 12.993444 10.238135 12.670544 C 9.1208448 12.422044 8.209895 12.198484 7.505485 11.999784 C 6.801075 11.800984 6.133013 11.539886 5.501473 11.216886 C 4.869933 10.869086 4.3356901 10.447147 3.8984701 9.950297 C 3.4855401 9.453417 3.2184186 8.8321749 3.0969686 8.0868449 C 3.0483886 7.8135649 3.0241048 7.5523769 3.0241048 7.3039469 C 3.0241048 5.8878269 3.570748 4.6829405 4.663798 3.6891805 C 5.756848 2.6705805 7.3719671 2.1616252 9.5094971 2.1616252 C 11.331237 2.1616252 12.861631 2.6582135 14.100431 3.6519735 C 15.339231 4.6208935 15.958716 6.0746008 15.958716 8.0124308 L 18.327047 8.0124308 C 18.327047 5.7019308 17.56188 3.7887363 16.03158 2.2732463 C 14.50128 0.75775926 12.327137 -1.3159844e-14 9.5094971 0 z M 23.646102 0.70796712 L 23.646102 27.539404 L 32.609379 27.539404 C 34.625479 27.539404 36.398751 27.315744 37.928951 26.868644 C 39.483551 26.396544 40.807185 25.527118 41.900285 24.260018 C 43.017585 23.017818 43.818989 21.502742 44.304789 19.714042 C 44.814889 17.925242 45.070117 16.049179 45.070117 14.086479 C 45.070117 13.117579 44.997226 12.111558 44.851526 11.068058 C 44.705826 10.024658 44.462988 8.98095 44.122888 7.9375 C 43.807088 6.89405 43.35765 5.9127237 42.77465 4.9934937 C 42.21595 4.0742637 41.523674 3.3165074 40.697774 2.7202474 C 39.580474 1.9003974 38.39055 1.3662012 37.12745 1.1177612 C 35.88865 0.84447923 34.382579 0.70796712 32.609379 0.70796712 L 23.646102 0.70796712 z M 63.964054 0.87074788 L 60.631958 4.2023275 L 63.964054 4.2023275 L 63.964054 27.608651 L 67.000045 27.608651 L 67.000045 0.87074788 L 63.964054 0.87074788 z M 26.123987 2.8695923 L 32.062642 2.8695923 C 33.350042 2.8695923 34.491856 2.9437745 35.487756 3.0928345 C 36.507956 3.2170545 37.370279 3.4782224 38.074679 3.8757324 C 38.949079 4.3477624 39.677592 4.9561408 40.260592 5.7014608 C 40.867792 6.4467808 41.341694 7.279236 41.681694 8.198466 C 42.021794 9.092856 42.252758 10.037051 42.374158 11.030851 C 42.519958 12.024551 42.592749 13.042979 42.592749 14.086479 C 42.592749 15.105079 42.519958 16.098792 42.374158 17.067692 C 42.252758 18.036592 42.021794 18.980877 41.681694 19.900077 C 41.365994 20.819277 40.916355 21.651783 40.333455 22.397083 C 39.750455 23.117583 39.046306 23.701197 38.220406 24.148397 C 37.297406 24.645297 36.362193 24.980637 35.414893 25.154537 C 34.467593 25.303637 33.350042 25.378296 32.062642 25.378296 L 26.123987 25.378296 L 26.123987 2.8695923 z " />
  </g>
</svg>
