<?xml version="1.0" encoding="UTF-8" standalone="no"?>
<!-- Created with Inkscape (http://www.inkscape.org/) -->

<svg
   width="92mm"
   height="32.993019mm"
   viewBox="0 0 92 32.993019"
   version="1.1"
   id="svg1"
   xml:space="preserve"
   sodipodi:docname="vfx.svg"
   inkscape:version="1.4.2 (ebf0e940d0, 2025-05-08)"
   xmlns:inkscape="http://www.inkscape.org/namespaces/inkscape"
   xmlns:sodipodi="http://sodipodi.sourceforge.net/DTD/sodipodi-0.dtd"
   xmlns="http://www.w3.org/2000/svg"
   xmlns:svg="http://www.w3.org/2000/svg"><sodipodi:namedview
     id="namedview1"
     pagecolor="#909090"
     bordercolor="#000000"
     borderopacity="0.25"
     inkscape:showpageshadow="2"
     inkscape:pageopacity="0.0"
     inkscape:pagecheckerboard="true"
     inkscape:deskcolor="#d1d1d1"
     inkscape:document-units="mm"
     showguides="true"
     inkscape:zoom="2.207477"
     inkscape:cx="215.40428"
     inkscape:cy="64.553334"
     inkscape:window-width="1704"
     inkscape:window-height="996"
     inkscape:window-x="0"
     inkscape:window-y="0"
     inkscape:window-maximized="1"
     inkscape:current-layer="g10"><sodipodi:guide
       position="78.88913,414.87844"
       orientation="0,-1"
       id="guide3"
       inkscape:locked="false" /></sodipodi:namedview><defs
     id="defs1" /><g
     id="g10"><path
       id="path3"
       style="opacity:1;fill:#299ca3;fill-opacity:1;stroke-width:3.49124"
       inkscape:transform-center-y="5.4987517"
       d="M 3.6629875,1.033192e-8 19.048062,26.647483 34.433135,1.033192e-8 Z" /><path
       id="rect10"
       style="opacity:1;fill:#ffffff;stroke-width:4.44129"
       d="M 0 0 L 19.047933 32.992301 L 34.43304 6.3458659 L 34.43304 0 L 19.047933 26.647469 L 3.6628255 0 L 0 0 z M 36.165751 0.00051676432 L 36.165751 3.1724162 L 36.165751 13.324251 L 36.165751 16.496667 L 36.165751 32.992818 L 39.338167 32.992818 L 39.338167 16.496667 L 57.102974 16.496667 L 53.930558 13.324251 L 39.338167 13.324251 L 39.338167 3.1724162 L 57.692086 3.1724162 L 71.016854 16.497184 L 73.260128 18.740458 L 87.513005 32.992818 L 91.999552 32.992818 L 75.503402 16.497184 L 92.000069 0.00051676432 L 87.513521 0.00051676432 L 73.260128 14.25391 L 59.006734 0.00051676432 L 54.520186 0.00051676432 L 39.338167 0.00051676432 L 36.165751 0.00051676432 z M 69.6712 17.843355 L 54.520703 32.992818 L 59.007251 32.992818 L 71.913957 20.086629 L 69.6712 17.843355 z " /></g></svg>
