<?xml version="1.0" encoding="UTF-8" standalone="no"?>
<!-- Created with Inkscape (http://www.inkscape.org/) -->

<svg
   width="90.495209mm"
   height="26.00021mm"
   viewBox="0 0 90.495209 26.00021"
   version="1.1"
   id="svg1"
   xml:space="preserve"
   sodipodi:docname="vfxsd.svg"
   inkscape:version="1.4.2 (ebf0e940d0, 2025-05-08)"
   xmlns:inkscape="http://www.inkscape.org/namespaces/inkscape"
   xmlns:sodipodi="http://sodipodi.sourceforge.net/DTD/sodipodi-0.dtd"
   xmlns="http://www.w3.org/2000/svg"
   xmlns:svg="http://www.w3.org/2000/svg"><sodipodi:namedview
     id="namedview1"
     pagecolor="#909090"
     bordercolor="#000000"
     borderopacity="0.25"
     inkscape:showpageshadow="2"
     inkscape:pageopacity="0.0"
     inkscape:pagecheckerboard="true"
     inkscape:deskcolor="#d1d1d1"
     inkscape:document-units="mm"
     showguides="true"
     inkscape:zoom="2.207477"
     inkscape:cx="134.31624"
     inkscape:cy="60.929287"
     inkscape:window-width="1704"
     inkscape:window-height="996"
     inkscape:window-x="0"
     inkscape:window-y="0"
     inkscape:window-maximized="1"
     inkscape:current-layer="g10"><sodipodi:guide
       position="78.88913,414.87844"
       orientation="0,-1"
       id="guide3"
       inkscape:locked="false" /></sodipodi:namedview><defs
     id="defs1" /><g
     id="g10"><path
       style="-inkscape-font-specification:&quot;Helvetica-Light, Normal&quot;;fill:#ffffff;font-family:Helvetica-Light;font-size:14.5119px;stroke-width:3.4280642801286003;text-align:center;text-anchor:middle"
       d="M 73.4008 7.60444 C 73.4008 8.69767 73.7491 9.53936 74.4457 10.1295 C 75.1423 10.71 76.0566 11.0002 77.1885 11.0002 C 78.3882 11.0002 79.3218 10.7342 79.9894 10.2021 C 80.6666 9.66029 81.0052 8.91051 81.0052 7.95273 C 81.0052 7.42062 80.9085 6.97559 80.715 6.61763 C 80.5215 6.25967 80.2603 5.97911 79.9313 5.77594 C 79.6024 5.5631 79.2589 5.40347 78.901 5.29705 C 78.543 5.18096 78.0689 5.06002 77.4788 4.93425 C 77.0337 4.8375 76.6709 4.75043 76.3904 4.67304 C 76.1098 4.59564 75.8437 4.49406 75.5922 4.36829 C 75.3406 4.23284 75.1278 4.06837 74.9537 3.87488 C 74.7892 3.68139 74.6828 3.43952 74.6344 3.14929 C 74.6151 3.04287 74.6054 2.94129 74.6054 2.84454 C 74.6054 2.29309 74.8231 1.82387 75.2584 1.43688 C 75.6938 1.04022 76.3372 0.84189 77.1886 0.84189 C 77.9142 0.84189 78.5237 1.03538 79.0171 1.42237 C 79.5105 1.79968 79.7572 2.36565 79.7572 3.12026 L 80.7005 3.12026 C 80.7005 2.22053 80.3958 1.47558 79.7862 0.88543 C 79.1767 0.295277 78.3108 0.0002 77.1886 0.0002 C 76.076 0.0002 75.2052 0.275927 74.5764 0.82738 C 73.9572 1.36916 73.6476 2.02703 73.6476 2.801 C 73.6476 3.31375 73.7443 3.74911 73.9378 4.10707 C 74.1313 4.45536 74.3877 4.73108 74.707 4.93425 C 75.0262 5.13742 75.3649 5.29705 75.7228 5.41314 C 76.0808 5.52924 76.5452 5.65501 77.116 5.79045 C 77.5997 5.90655 77.9964 6.01297 78.306 6.10971 C 78.6156 6.19678 78.901 6.31772 79.1622 6.47251 C 79.4234 6.6273 79.6314 6.83047 79.7862 7.08201 C 79.941 7.33355 80.0184 7.6383 80.0184 7.99626 C 80.0184 8.61543 79.7959 9.13302 79.3509 9.54903 C 78.9058 9.95536 78.2431 10.1585 77.3627 10.1585 C 76.5016 10.1585 75.8051 9.95536 75.273 9.54903 C 74.7408 9.1427 74.4361 8.49451 74.3587 7.60444 Z M 85.5329 10.7245 C 86.336 10.7245 87.0422 10.6374 87.6517 10.4633 C 88.2709 10.2795 88.7982 9.94086 89.2336 9.44745 C 89.6786 8.96372 89.9979 8.37357 90.1914 7.677 C 90.3945 6.98043 90.4961 6.24999 90.4961 5.4857 C 90.4961 5.10839 90.4671 4.71657 90.409 4.31024 C 90.3509 3.90391 90.2542 3.49757 90.1188 3.09124 C 89.993 2.68491 89.814 2.30276 89.5818 1.9448 C 89.3593 1.58684 89.0836 1.29176 88.7546 1.05957 C 88.3096 0.74031 87.8355 0.532307 87.3324 0.43556 C 86.839 0.32914 86.2392 0.27593 85.5329 0.27593 L 81.9629 0.27593 L 81.9629 10.7245 Z M 82.9498 1.11762 L 85.3153 1.11762 C 85.828 1.11762 86.2827 1.14665 86.6794 1.20472 C 87.0858 1.25312 87.4292 1.3547 87.7098 1.50947 C 88.0581 1.69329 88.3483 1.93032 88.5805 2.22056 C 88.8224 2.51079 89.011 2.83489 89.1465 3.19285 C 89.2819 3.54114 89.3738 3.90877 89.4222 4.29576 C 89.4803 4.68274 89.5093 5.0794 89.5093 5.48573 C 89.5093 5.88239 89.4803 6.26937 89.4222 6.64668 C 89.3738 7.02399 89.2819 7.39163 89.1465 7.74959 C 89.0207 8.10755 88.8417 8.43165 88.6095 8.72189 C 88.3773 9.00245 88.0968 9.2298 87.7678 9.40395 C 87.4002 9.59744 87.0277 9.72804 86.6504 9.79577 C 86.2731 9.85384 85.828 9.88287 85.3153 9.88287 L 82.9498 9.88287 Z"
       id="text1"
       aria-label="SD" /><path
       id="rect10"
       style="fill:#ffffff;opacity:1;stroke-width:3.499994999425004"
       d="M 0 0 L 15.01097 25.999963 L 27.135295 5.0007284 L 27.135295 0 L 15.01097 20.999752 L 2.8866455 0 L 0 0 z M 28.500586 0.00051676432 L 28.500586 2.5001058 L 28.500586 10.500134 L 28.500586 13.00024 L 28.500586 26.00048 L 31.000692 26.00048 L 31.000692 13.00024 L 45.000354 13.00024 L 42.500248 10.500134 L 31.000692 10.500134 L 31.000692 2.5001058 L 45.464408 2.5001058 L 55.965059 13.000757 L 57.733427 14.768608 L 68.965299 26.00048 L 72.501001 26.00048 L 59.500761 13.000757 L 72.501518 0.00051676432 L 68.965816 0.00051676432 L 57.733427 11.232906 L 46.500521 0.00051676432 L 42.964819 0.00051676432 L 31.000692 0.00051676432 L 28.500586 0.00051676432 z M 54.904659 14.061674 L 42.965336 26.00048 L 46.501038 26.00048 L 56.671993 15.829525 L 54.904659 14.061674 z " /><path
       id="path3"
       style="fill:#299ca3;fill-opacity:1;opacity:1;stroke-width:2.75130013912"
       d="M 2.88665 3.57591e-06 L 15.011 20.9998 L 27.1353 3.57591e-06 L 2.88665 3.57591e-06 Z" /></g></svg>
